<svg id="_3592866_attach_attachment_clip_clipping_general_icon" data-name="3592866_attach_attachment_clip_clipping_general_icon" xmlns="http://www.w3.org/2000/svg" width="19.275" height="19.766" viewBox="0 0 19.275 19.766">
  <path id="Path_44767" data-name="Path 44767" d="M21.625,8.959a.742.742,0,0,0-1.05,0l-9.6,9.6a4.23,4.23,0,0,1-2.929,1.256,3.874,3.874,0,0,1-2.855-1.138,4.1,4.1,0,0,1,.118-5.784l.006-.007L14.43,3.77A2.567,2.567,0,0,1,18.058,7.4l0,0L8.777,16.685h0a1.068,1.068,0,0,1-1.511-1.509l0,0,8.32-8.322a.743.743,0,0,0-1.05-1.05L6.222,14.121l0,0a2.553,2.553,0,0,0,3.61,3.611l0,0,9.278-9.277h0l0,0,.158-.158a.732.732,0,0,0,.1-.131,4.051,4.051,0,0,0-5.7-5.7.742.742,0,0,0-.131.1L4.256,11.845l-.005.006a5.583,5.583,0,0,0-.112,7.878A5.369,5.369,0,0,0,7.97,21.3h.1a5.706,5.706,0,0,0,3.953-1.691l0,0,9.6-9.6A.742.742,0,0,0,21.625,8.959Z" transform="translate(-2.567 -1.538)" fill="#da593b"/>
</svg>
