<svg xmlns="http://www.w3.org/2000/svg" width="13.377" height="13.377" viewBox="0 0 13.377 13.377">
  <path id="_1904656_calendar_date_day_event_organization_icon" data-name="1904656_calendar_date_day_event_organization_icon" d="M12.646,1.076H11.2V.314a.314.314,0,1,0-.627,0v.763H8.4V.314a.314.314,0,0,0-.627,0v.763H5.6V.314a.314.314,0,1,0-.627,0v.763H2.8V.314a.314.314,0,0,0-.627,0v.763H.732A.732.732,0,0,0,0,1.808V12.646a.732.732,0,0,0,.732.732h9.2a.314.314,0,0,0,.062-.006l.027-.008a.184.184,0,0,0,.062-.026l.024-.013a.313.313,0,0,0,.048-.04l3.135-3.135a.313.313,0,0,0,.04-.048c0-.007.007-.015.011-.022a.186.186,0,0,0,.026-.063.169.169,0,0,1,.008-.028.314.314,0,0,0,.005-.06h0V1.808a.732.732,0,0,0-.732-.732Zm-2.4,9.165h2.065l-2.065,2.065ZM.732,1.7H2.174v.763a.314.314,0,1,0,.627,0V1.7H4.975v.763a.314.314,0,1,0,.627,0V1.7H7.775v.763a.314.314,0,1,0,.627,0V1.7h2.174v.763a.314.314,0,1,0,.627,0V1.7h1.442a.1.1,0,0,1,.1.1V3.3H.627V1.808A.1.1,0,0,1,.732,1.7Zm-.1,10.942V3.93H12.75V9.615H9.928a.314.314,0,0,0-.314.314V12.75H.732A.1.1,0,0,1,.627,12.646Z" fill="#da593b"/>
</svg>
