<svg xmlns="http://www.w3.org/2000/svg" xmlns:xlink="http://www.w3.org/1999/xlink" width="12.101" height="13.782" viewBox="0 0 12.101 13.782">
  <defs>
    <clipPath id="clip-path">
      <path id="Combined_Shape" data-name="Combined Shape" d="M1.772,11.764A7.354,7.354,0,0,1,0,6.891,7.354,7.354,0,0,1,1.772,2.019,5.664,5.664,0,0,1,6.051,0a5.664,5.664,0,0,1,4.278,2.019A7.354,7.354,0,0,1,12.1,6.891a7.354,7.354,0,0,1-1.772,4.873,5.664,5.664,0,0,1-4.278,2.019A5.664,5.664,0,0,1,1.772,11.764ZM1.1,6.891c0,3.109,2.221,5.638,4.951,5.638S11,10,11,6.891,8.78,1.253,6.051,1.253,1.1,3.782,1.1,6.891ZM7.312,9.214,5.662,7.334A.672.672,0,0,1,5.5,6.891V3.133a.593.593,0,0,1,.55-.627.592.592,0,0,1,.55.627v3.5l1.489,1.7a.689.689,0,0,1,0,.886.5.5,0,0,1-.778,0Z" fill="#da593b"/>
    </clipPath>
  </defs>
  <g id="Group_80" data-name="Group 80" clip-path="url(#clip-path)">
    <g id="COLOR_black" data-name="COLOR/ black" transform="translate(-0.55 -0.626)">
      <rect id="Rectangle" width="13.201" height="15.035" fill="#da593b"/>
    </g>
  </g>
</svg>
