<svg id="_103465_data_privacy_icon" data-name="103465_data_privacy_icon" xmlns="http://www.w3.org/2000/svg" width="29.361" height="29.362" viewBox="0 0 29.361 29.362">
  <g id="background">
    <rect id="Rectangle_5689" data-name="Rectangle 5689" width="29" height="29" fill="none"/>
  </g>
  <g id="data_privacy">
    <path id="Path_66983" data-name="Path 66983" d="M11.011,16.516a3.67,3.67,0,1,0-3.67-3.67A3.67,3.67,0,0,0,11.011,16.516ZM22.022,12.9V5.124L16.9,0H0V29.362H22.022v-.055a8.254,8.254,0,0,0,0-16.407ZM16.514,2.214l3.292,3.291H16.514V2.214ZM1.835,27.527V1.833H14.681V7.34h5.505V12.9a8.255,8.255,0,0,0-6.861,5.451H5.505A1.8,1.8,0,0,0,3.67,20.186v5.505H14.239a8.263,8.263,0,0,0,1.681,1.835Zm19.269,0A6.422,6.422,0,1,1,27.526,21.1,6.432,6.432,0,0,1,21.1,27.526Z" fill="#d9583b"/>
    <path id="Path_66984" data-name="Path 66984" d="M25.555,21.67c.007-.12.013-.245.013-.375a3.932,3.932,0,0,0-.51-2.073A2.683,2.683,0,0,0,22.67,18a2.687,2.687,0,0,0-2.39,1.223,3.9,3.9,0,0,0-.51,2.073c0,.131.006.255.013.375H19v4.588h7.341V21.67ZM21.6,21.295a2.181,2.181,0,0,1,.233-1.1c.159-.208.248-.336.834-.362.584.025.67.151.829.362a2.16,2.16,0,0,1,.232,1.1c0,.133-.007.257-.017.375H21.621C21.611,21.55,21.6,21.424,21.6,21.295Z" transform="translate(-1.566 -1.484)" fill="#d9583b"/>
  </g>
</svg>
