<svg xmlns="http://www.w3.org/2000/svg" width="24.986" height="26.003" viewBox="0 0 24.986 26.003">
  <g id="_7100195_resume_contract_form_document_file_icon" data-name="7100195_resume_contract_form_document_file_icon" transform="translate(-33.91 -24.502)">
    <path id="Path_44890" data-name="Path 44890" d="M58.365,31.028a.325.325,0,0,0-.181-.172l-15.1-5.828a.325.325,0,0,0-.422.187L41.8,27.455l-3.1-.576a.329.329,0,0,0-.379.261L37.883,29.5H34.735a.325.325,0,0,0-.325.325V49.68a.325.325,0,0,0,.325.325H50.919a.325.325,0,0,0,.315-.245l7.136-18.482A.325.325,0,0,0,58.365,31.028Zm-7.12-1.148,2.928.545L51.246,46.139Zm-8.092-4.126,9.785,3.777L42.451,27.577Zm-4.249,1.827L49.218,29.5H38.547Zm-3.842,2.574h15.53v19.2H35.063Zm16.824,16.1,2.979-15.983,2.779,1.073Z" transform="translate(0 0)" fill="#898989" stroke="#898989" stroke-width="1"/>
    <path id="Path_44891" data-name="Path 44891" d="M101.606,392.92H91.576a.326.326,0,1,0,0,.653h10.03a.326.326,0,1,0,0-.653Z" transform="translate(-53.764 -348.006)" fill="#898989" stroke="#898989" stroke-width="1"/>
    <path id="Path_44892" data-name="Path 44892" d="M101.606,348H91.576a.326.326,0,0,0,0,.653h10.03a.326.326,0,1,0,0-.653Z" transform="translate(-53.764 -305.517)" fill="#898989" stroke="#898989" stroke-width="1"/>
    <path id="Path_44893" data-name="Path 44893" d="M101.606,303.05H91.576a.326.326,0,1,0,0,.653h10.03a.326.326,0,1,0,0-.653Z" transform="translate(-53.764 -262.999)" fill="#898989" stroke="#898989" stroke-width="1"/>
    <path id="Path_44894" data-name="Path 44894" d="M101.606,258.11H91.576a.326.326,0,1,0,0,.653h10.03a.326.326,0,1,0,0-.653Z" transform="translate(-53.764 -220.491)" fill="#898989" stroke="#898989" stroke-width="1"/>
    <path id="Path_44895" data-name="Path 44895" d="M91.576,213.823h7.484a.326.326,0,0,0,0-.653H91.576a.326.326,0,0,0,0,.653Z" transform="translate(-53.764 -177.983)" fill="#898989" stroke="#898989" stroke-width="1"/>
  </g>
</svg>
