<svg xmlns="http://www.w3.org/2000/svg" width="26.804" height="20.103" viewBox="0 0 26.804 20.103">
  <path id="email" d="M22.336,3H4.467A4.48,4.48,0,0,0,0,7.467V18.635A4.48,4.48,0,0,0,4.467,23.1H22.336A4.48,4.48,0,0,0,26.8,18.635V7.467A4.48,4.48,0,0,0,22.336,3Zm1.787,6.478L15.3,15.4a3.765,3.765,0,0,1-1.9.558,3.765,3.765,0,0,1-1.9-.558L2.68,9.478a1.181,1.181,0,0,1-.223-1.564,1.181,1.181,0,0,1,1.564-.223l8.823,5.919a1.21,1.21,0,0,0,1.228,0l8.823-5.919a1.1,1.1,0,0,1,1.564.335A1.218,1.218,0,0,1,24.123,9.478Z" transform="translate(0 -3)" fill="#d9583b"/>
</svg>
