<svg xmlns="http://www.w3.org/2000/svg" width="24.732" height="29.681" viewBox="0 0 24.732 29.681">
  <g id="icons" transform="translate(-2 0.002)">
    <path id="password" d="M24.259,12.366H9.42V8.9A5.112,5.112,0,0,1,13.871,3.71a5.01,5.01,0,0,1,5.441,4.946h0a1.168,1.168,0,0,0,1.237,1.237h1.237a1.168,1.168,0,0,0,1.237-1.237h0A8.632,8.632,0,0,0,14.613,0a8.736,8.736,0,0,0-8.9,8.656v3.71H4.473A2.48,2.48,0,0,0,2,14.84V23.5a6.123,6.123,0,0,0,6.183,6.183H20.549A6.123,6.123,0,0,0,26.732,23.5V14.84A2.48,2.48,0,0,0,24.259,12.366ZM15.6,21.888V23.5a1.33,1.33,0,0,1-1.237,1.237A1.33,1.33,0,0,1,13.129,23.5V21.888a2.394,2.394,0,0,1-1.237-2.1,2.473,2.473,0,0,1,4.946,0A2.394,2.394,0,0,1,15.6,21.888Z" transform="translate(0 0)" fill="#d9583b"/>
  </g>
</svg>
