<svg xmlns="http://www.w3.org/2000/svg" width="20.103" height="20.103" viewBox="0 0 20.103 20.103">
  <path id="Path_2422" data-name="Path 2422" d="M22.054,14.706a16.819,16.819,0,0,1-7.36,7.354L12.237,19.6a1.12,1.12,0,0,0-1.134-.274,12.713,12.713,0,0,1-3.987.637A1.113,1.113,0,0,0,6,21.077v3.909A1.113,1.113,0,0,0,7.117,26.1,18.984,18.984,0,0,0,26.1,7.117,1.117,1.117,0,0,0,24.986,6H21.077A1.113,1.113,0,0,0,19.96,7.117a12.713,12.713,0,0,1-.637,3.987,1.12,1.12,0,0,0,.274,1.134Z" transform="translate(-6 -6)" fill="#d9583b"/>
</svg>
