<svg xmlns="http://www.w3.org/2000/svg" width="15" height="15" viewBox="0 0 15 15">
  <g id="_9045061_request_quote_icon" data-name="9045061_request_quote_icon" transform="translate(0)">
    <path id="Path_44762" data-name="Path 44762" d="M12.9,11.885v2.966H4.989V2.989H9.931V2H4.989A.989.989,0,0,0,4,2.989V14.851a.989.989,0,0,0,.989.989H12.9a.989.989,0,0,0,.989-.989V11.885Z" transform="translate(-2.46 -1.47)" fill="#da593b"/>
    <path id="Path_44763" data-name="Path 44763" d="M19.658,3.86,18.027,2.229a.791.791,0,0,0-1.107,0L10,9.148v2.738h2.733l6.92-6.92a.791.791,0,0,0,0-1.107ZM12.323,10.9H10.989V9.563l4.666-4.671,1.339,1.339Zm5.368-5.363L16.351,4.2l1.122-1.122,1.339,1.339Z" transform="translate(-5.494 -1.472)" fill="#da593b"/>
    <rect id="_Transparent_Rectangle_" data-name="&lt;Transparent Rectangle&gt;" width="15" height="15" transform="translate(0)" fill="none"/>
  </g>
</svg>
