<svg id="_2639916_services_icon" data-name="2639916_services_icon" xmlns="http://www.w3.org/2000/svg" width="25" height="25" viewBox="0 0 25 25">
  <circle id="Ellipse_1172" data-name="Ellipse 1172" cx="0.833" cy="0.833" r="0.833" transform="translate(15.833 7.364)" fill="#898989"/>
  <g id="Group_26955" data-name="Group 26955" transform="translate(0 6.667)">
    <path id="Path_44847" data-name="Path 44847" d="M10.833,17.167A1.667,1.667,0,1,1,9.167,15.5,1.666,1.666,0,0,1,10.833,17.167Zm7.5-.279v.558a.415.415,0,0,1-.34.409l-.823.154a.846.846,0,0,0-.664.68,7.358,7.358,0,0,1-.22.835.847.847,0,0,0,.237.917l.633.543a.416.416,0,0,1,.089.525l-.279.483a.417.417,0,0,1-.5.185l-.794-.279a.848.848,0,0,0-.913.254,7.619,7.619,0,0,1-.608.608.848.848,0,0,0-.254.913l.279.794a.416.416,0,0,1-.185.5l-.483.279a.418.418,0,0,1-.525-.089l-.542-.632a.847.847,0,0,0-.917-.237,7.312,7.312,0,0,1-.835.22.846.846,0,0,0-.68.664L9.853,26a.413.413,0,0,1-.407.338H8.887a.415.415,0,0,1-.409-.34l-.154-.823a.846.846,0,0,0-.68-.664,7.358,7.358,0,0,1-.835-.22.847.847,0,0,0-.917.237l-.542.633a.416.416,0,0,1-.525.089l-.483-.279a.417.417,0,0,1-.185-.5l.279-.794a.848.848,0,0,0-.254-.913,7.618,7.618,0,0,1-.608-.608A.848.848,0,0,0,2.66,21.9l-.793.281a.416.416,0,0,1-.5-.185l-.279-.483a.418.418,0,0,1,.089-.525l.632-.542a.847.847,0,0,0,.237-.917,7.312,7.312,0,0,1-.22-.835.846.846,0,0,0-.664-.68l-.823-.154A.416.416,0,0,1,0,17.446v-.558a.415.415,0,0,1,.34-.409l.823-.154a.846.846,0,0,0,.664-.68,7.358,7.358,0,0,1,.22-.835.847.847,0,0,0-.237-.917l-.632-.542a.416.416,0,0,1-.089-.525l.279-.483a.417.417,0,0,1,.5-.185l.794.279a.848.848,0,0,0,.913-.254,7.619,7.619,0,0,1,.608-.608.848.848,0,0,0,.254-.913l-.281-.793a.416.416,0,0,1,.185-.5l.483-.279a.418.418,0,0,1,.525.089l.543.632a.847.847,0,0,0,.917.237,7.358,7.358,0,0,1,.835-.22.846.846,0,0,0,.68-.664l.154-.823A.416.416,0,0,1,8.887,8h.558a.415.415,0,0,1,.409.34l.154.823a.846.846,0,0,0,.68.664,7.358,7.358,0,0,1,.835.22.847.847,0,0,0,.917-.237l.542-.632a.416.416,0,0,1,.525-.089l.483.279a.417.417,0,0,1,.185.5l-.279.793a.848.848,0,0,0,.254.913,7.618,7.618,0,0,1,.608.608.848.848,0,0,0,.913.254l.794-.279a.416.416,0,0,1,.5.185l.279.483a.418.418,0,0,1-.089.525l-.633.543a.847.847,0,0,0-.237.917,7.358,7.358,0,0,1,.22.835.846.846,0,0,0,.664.68l.823.154A.414.414,0,0,1,18.333,16.888Zm-4.167.279a5,5,0,1,0-5,5A5,5,0,0,0,14.167,17.167Z" transform="translate(0 -8)" fill="#898989"/>
  </g>
  <path id="Path_44848" data-name="Path 44848" d="M26.511,7.645l-.98-.184a.631.631,0,0,1-.5-.5,6.667,6.667,0,0,0-.184-.7.632.632,0,0,1,.179-.682l.755-.647a.416.416,0,0,0,.089-.525l-.279-.483a.417.417,0,0,0-.5-.185l-.94.331a.631.631,0,0,1-.68-.186,6.693,6.693,0,0,0-.51-.51.631.631,0,0,1-.186-.68l.331-.94a.416.416,0,0,0-.185-.5L22.442.977a.418.418,0,0,0-.525.089l-.647.755A.632.632,0,0,1,20.588,2a6.667,6.667,0,0,0-.7-.184.634.634,0,0,1-.5-.5L19.2.339A.412.412,0,0,0,18.8,0h-.558a.415.415,0,0,0-.409.34l-.184.98a.631.631,0,0,1-.5.5,6.667,6.667,0,0,0-.7.184.632.632,0,0,1-.682-.179l-.647-.755a.416.416,0,0,0-.525-.089l-.483.279a.417.417,0,0,0-.185.5l.331.94a.631.631,0,0,1-.186.68,6.693,6.693,0,0,0-.51.51.631.631,0,0,1-.68.186l-.94-.331a.416.416,0,0,0-.5.185l-.279.483a.418.418,0,0,0,.089.525l.082.07A2.081,2.081,0,0,1,13.343,6.7l.05.265.174-.2a2.077,2.077,0,0,1,1.472-.717,4.164,4.164,0,1,1,5.768,5.767,2.073,2.073,0,0,1-.717,1.472l-.2.175.265.05a2.081,2.081,0,0,1,1.7,2.012l.07.082a.416.416,0,0,0,.525.089l.483-.279a.417.417,0,0,0,.185-.5l-.331-.94a.631.631,0,0,1,.186-.68,6.693,6.693,0,0,0,.51-.51.631.631,0,0,1,.68-.186l.94.331a.416.416,0,0,0,.5-.185l.279-.483a.418.418,0,0,0-.089-.525l-.755-.648a.632.632,0,0,1-.179-.682,6.667,6.667,0,0,0,.184-.7.634.634,0,0,1,.5-.5l.98-.184a.411.411,0,0,0,.34-.407V8.054A.415.415,0,0,0,26.511,7.645Z" transform="translate(-1.851)" fill="#898989"/>
</svg>
