<svg xmlns="http://www.w3.org/2000/svg" width="29.361" height="29.478" viewBox="0 0 29.361 29.478">
  <path id="Path_2359" data-name="Path 2359" d="M444.353,850.73c-.807.078-1.611.186-2.419.248a.588.588,0,0,1-.451-.209c-.529-.776-1.013-1.583-1.546-2.355a.5.5,0,0,1-.062-.619c.48-.863.937-1.74,1.4-2.612.075-.141.146-.285.272-.534l-3.692-2.41c-.758.929-1.46,1.763-2.127,2.624a.651.651,0,0,1-.828.286c-.832-.233-1.7-.35-2.542-.54a.532.532,0,0,1-.333-.295c-.317-.951-.637-1.9-.9-2.87-.124-.464-.351-.582-.782-.489a2.739,2.739,0,0,1-.517.015l-2.257.451a1.386,1.386,0,0,1-.229.121c-.85.265-.724.169-.646,1,.095,1.01.206,2.018.3,2.894l-3.041,2.07-3.312-1.763a14.082,14.082,0,0,0-2.4,3.679c.916.743,1.806,1.471,2.7,2.191a.389.389,0,0,1,.171.472c-.228.941-.433,1.89-.6,2.844a.458.458,0,0,1-.387.434c-.974.294-1.942.61-2.915.907a.4.4,0,0,0-.341.462,12.552,12.552,0,0,0,.806,3.7c.085.238.238.244.451.22.982-.113,1.967-.2,2.948-.321a.5.5,0,0,1,.584.29c.555.931,1.163,1.829,1.8,2.814l-1.692,3.177a13.124,13.124,0,0,0,3.7,2.468l2.3-2.862c1.043.174,2.008.361,2.981.484a.629.629,0,0,1,.631.527c.262.937.561,1.864.854,2.793.058.184.081.434.389.37l3.761-.781c.266-.055.332-.215.3-.482-.12-1-.2-2-.332-2.99-.053-.383.108-.532.4-.714a23.082,23.082,0,0,0,2.105-1.442.554.554,0,0,1,.754-.067c.972.553,1.966,1.068,2.93,1.586a12.586,12.586,0,0,0,2.443-3.742c-.889-.709-1.78-1.436-2.691-2.137a.478.478,0,0,1-.183-.588c.186-.86.312-1.734.49-2.6a.581.581,0,0,1,.313-.378c.854-.281,1.719-.532,2.583-.783.483-.14.679-.2.739-.4l-.8-4C445.249,850.645,445.006,850.666,444.353,850.73Zm-6.344,3.607a6.61,6.61,0,0,1-5.185,7.778h0a6.61,6.61,0,0,1-7.778-5.185h0a6.61,6.61,0,0,1,5.185-7.778h0a6.61,6.61,0,0,1,7.778,5.185Z" transform="translate(-416.872 -840.925)" fill="#d9583b"/>
</svg>
