<svg xmlns="http://www.w3.org/2000/svg" width="26.256" height="29.681" viewBox="0 0 26.256 29.681">
  <g id="_2639877_online_support_icon" data-name="2639877_online_support_icon" transform="translate(-4 -2)">
    <path id="Path_66977" data-name="Path 66977" d="M15,26v2.283A10.019,10.019,0,0,0,21.419,26Z" transform="translate(1.557 3.398)" fill="#d9583b"/>
    <path id="Path_66978" data-name="Path 66978" d="M5,16v2.283a3.318,3.318,0,0,0,2.283,3.425s2.283,6.849,9.133,6.849" transform="translate(0.142 1.982)" fill="none" stroke="#d9583b" stroke-linecap="round" stroke-miterlimit="10" stroke-width="2"/>
    <path id="Path_66979" data-name="Path 66979" d="M29.115,19.124H25.69c0-7.123-3.425-10.274-3.425-10.274C18.841,16.841,7.425,11.133,7.425,19.124H4V14.557A12.633,12.633,0,0,1,16.557,2c4.566,0,5.708,2.283,5.708,2.283,4.566,0,6.849,5.708,6.849,10.274Z" transform="translate(0 0)" fill="#d9583b"/>
    <path id="Path_66980" data-name="Path 66980" d="M15.854,21H14.712a1.712,1.712,0,1,0,0,3.425h1.142a1.712,1.712,0,1,0,0-3.425Z" transform="translate(1.274 2.69)" fill="#d9583b"/>
    <path id="Path_66981" data-name="Path 66981" d="M16,23.991h5.708a4.567,4.567,0,0,0,4.566-4.566V16" transform="translate(1.699 1.982)" fill="none" stroke="#d9583b" stroke-linecap="round" stroke-miterlimit="10" stroke-width="2"/>
    <path id="Path_66982" data-name="Path 66982" d="M25.283,20.708H23V15h2.283a2.283,2.283,0,0,1,2.283,2.283v1.142A2.283,2.283,0,0,1,25.283,20.708Z" transform="translate(2.69 1.841)" fill="#d9583b"/>
  </g>
</svg>
