<svg id="Group_33516" data-name="Group 33516" xmlns="http://www.w3.org/2000/svg" width="17.854" height="21.032" viewBox="0 0 17.854 21.032">
  <g id="_130" data-name="130">
    <g id="Group_151" data-name="Group 151">
      <path id="Path_131" data-name="Path 131" d="M19.717,15.169H25.79a.543.543,0,1,0,0-1.081H19.717A.543.543,0,1,0,19.717,15.169Z" transform="translate(-11.754 -7.484)" fill="#da593b"/>
      <path id="Path_132" data-name="Path 132" d="M25.79,21H19.717a.543.543,0,1,0,0,1.081H25.79A.543.543,0,1,0,25.79,21Z" transform="translate(-11.754 -11.158)" fill="#da593b"/>
      <path id="Path_133" data-name="Path 133" d="M25.79,27.488H19.717a.543.543,0,1,0,0,1.081H25.79A.543.543,0,1,0,25.79,27.488Z" transform="translate(-11.754 -14.602)" fill="#da593b"/>
      <path id="Path_134" data-name="Path 134" d="M25.79,34.4H19.717a.543.543,0,1,0,0,1.081H25.79A.543.543,0,1,0,25.79,34.4Z" transform="translate(-11.754 -18.276)" fill="#da593b"/>
      <path id="Path_135" data-name="Path 135" d="M13.112,12.406l-.176.222a10,10,0,0,0-.623.838l-.009-.009-.114-.115a.508.508,0,0,0-.768.115.372.372,0,0,0,.075.446l.121.122a5.916,5.916,0,0,0,.5.469.525.525,0,0,0,.325.112.479.479,0,0,0,.453-.289,4.866,4.866,0,0,1,.8-1.2c.072-.09.145-.179.214-.267a.342.342,0,0,0,.032-.4A.549.549,0,0,0,13.112,12.406Z" transform="translate(-8.168 -6.467)" fill="#da593b"/>
      <path id="Path_136" data-name="Path 136" d="M12.512,19.217l-.176.222a9.936,9.936,0,0,0-.624.838l-.008-.009-.115-.115a.507.507,0,0,0-.767.115.373.373,0,0,0,.075.447l.121.122a5.637,5.637,0,0,0,.5.469.517.517,0,0,0,.324.112.481.481,0,0,0,.454-.29,4.861,4.861,0,0,1,.8-1.2c.073-.09.145-.179.214-.267a.342.342,0,0,0,.033-.4A.549.549,0,0,0,12.512,19.217Z" transform="translate(-7.879 -10.066)" fill="#da593b"/>
      <path id="Path_137" data-name="Path 137" d="M12.512,26.189l-.176.222a10.006,10.006,0,0,0-.624.838L11.7,27.24l-.115-.115a.507.507,0,0,0-.767.115.372.372,0,0,0,.075.446l.121.122a5.768,5.768,0,0,0,.5.469.522.522,0,0,0,.324.112.48.48,0,0,0,.454-.29,4.858,4.858,0,0,1,.8-1.2c.073-.09.145-.179.214-.267a.342.342,0,0,0,.033-.4A.549.549,0,0,0,12.512,26.189Z" transform="translate(-7.879 -13.751)" fill="#da593b"/>
      <path id="Path_138" data-name="Path 138" d="M12.512,33.305l-.176.222a9.937,9.937,0,0,0-.624.838l-.008-.009-.115-.116a.507.507,0,0,0-.767.116.373.373,0,0,0,.075.447l.121.122a5.574,5.574,0,0,0,.5.469.517.517,0,0,0,.324.112.481.481,0,0,0,.454-.29,4.859,4.859,0,0,1,.8-1.2c.073-.09.145-.179.214-.267a.342.342,0,0,0,.033-.4A.549.549,0,0,0,12.512,33.305Z" transform="translate(-7.879 -17.259)" fill="#da593b"/>
      <path id="Path_139" data-name="Path 139" d="M19.715,0H5.179V21.032H23.033V2.918Zm1.774,19.631H6.723V1.4h12.2V3.622h2.569V19.631Z" transform="translate(-5.179)" fill="#da593b"/>
    </g>
  </g>
</svg>
