<svg id="User_Icon" data-name="User Icon" xmlns="http://www.w3.org/2000/svg" width="26.804" height="21.443" viewBox="0 0 26.804 21.443">
  <g id="User_Icon-2" data-name="User Icon" transform="translate(0 0)">
    <path id="Shape" d="M23.444,21.443v0c-.075-2.283-2.251-4.334-5.68-5.351a6.581,6.581,0,0,1-8.807-.078c-3.365.927-5.633,2.87-5.919,5.072A12.749,12.749,0,0,1,.807,17.322,12.431,12.431,0,0,1,0,12.9,12.581,12.581,0,0,1,3.925,3.779,13.58,13.58,0,0,1,13.4,0a13.58,13.58,0,0,1,9.477,3.779,12.551,12.551,0,0,1,.567,17.662ZM13.4,4.753a5.53,5.53,0,0,0-5.29,5.73,5.774,5.774,0,0,0,2.913,5.111,4.876,4.876,0,0,0,4.675.042,5.827,5.827,0,0,0,2.993-5.153A5.53,5.53,0,0,0,13.4,4.753Z" transform="translate(0 0)" fill="#d9583b"/>
  </g>
</svg>
